# xmcd
#
# Track frame offsets:
#	183
#	20215
#	39330
#	59378
#	78970
#	98643
#	118178
#	137675
#	155398
#	173845
#	191798
#	210418
#	225810
#	244868
#	261935
#
# Disc length: 3670 seconds
#
# Revision: 2
# Processed by: cddbd v1.5.1PL0 Copyright (c) Steve Scherf et al.
# Submitted via: dBpowerAMP V4.0
#
DISCID=c20e540f
DTITLE=Artistes Variés - Top des Tops N°4
DYEAR=1988
DGENRE=Compil'
TTITLE0=Glenn Mederos en duo avec Elsa - Un Roman d'Amitié
TTITLE1=Ofra Haza - Im Nin'Alu
TTITLE2=David and Jonathan - Est-ce que tu viens pour les Vacances
TTITLE3=Vaya Con Dios - Puerto Rico
TTITLE4=Shona - Au Jour le Jour
TTITLE5=Etienne Daho - Bleu Comme Toi
TTITLE6=Eric Serra - My Lady Blues
TTITLE7=S.Express - Theme From S.Express
TTITLE8=Sandra - Heaven Can Wait
TTITLE9=Phil Barney - Avec qui tu Vis
TTITLE10=Boy George - Don't Cry
TTITLE11=Taylor Dayne - Prove Your Love
TTITLE12=Patsy - Liverpool
TTITLE13=Eddy Grant - Gimme Hope Jo Anna
TTITLE14=Desire ( U2 )
EXTD=
EXTT0=
EXTT1=
EXTT2=
EXTT3=
EXTT4=
EXTT5=
EXTT6=
EXTT7=
EXTT8=
EXTT9=
EXTT10=
EXTT11=
EXTT12=
EXTT13=
EXTT14=
PLAYORDER=
